<?xml version="1.0" encoding="UTF-8" standalone="no"?>
<!-- Created with Inkscape (http://www.inkscape.org/) -->

<svg
   xmlns:dc="http://purl.org/dc/elements/1.1/"
   xmlns:cc="http://creativecommons.org/ns#"
   xmlns:rdf="http://www.w3.org/1999/02/22-rdf-syntax-ns#"
   xmlns:svg="http://www.w3.org/2000/svg"
   xmlns="http://www.w3.org/2000/svg"
   xmlns:sodipodi="http://sodipodi.sourceforge.net/DTD/sodipodi-0.dtd"
   xmlns:inkscape="http://www.inkscape.org/namespaces/inkscape"
   width="600"
   height="234.44629"
   viewBox="0 0 158.75 62.030582"
   version="1.1"
   id="svg8"
   inkscape:version="0.92.1 r15371"
   sodipodi:docname="Logo Servipag.svg">
  <title
     id="title4810">Servipag Logo</title>
  <defs
     id="defs2" />
  <sodipodi:namedview
     id="base"
     pagecolor="#ffffff"
     bordercolor="#666666"
     borderopacity="1.0"
     inkscape:pageopacity="0.0"
     inkscape:pageshadow="2"
     inkscape:zoom="0.19072266"
     inkscape:cx="584.90225"
     inkscape:cy="-383.94311"
     inkscape:document-units="px"
     inkscape:current-layer="layer1"
     showgrid="false"
     units="px"
     fit-margin-top="10"
     fit-margin-right="10"
     fit-margin-bottom="10"
     fit-margin-left="10"
     inkscape:showpageshadow="false"
     inkscape:window-width="1366"
     inkscape:window-height="705"
     inkscape:window-x="-8"
     inkscape:window-y="-8"
     inkscape:window-maximized="1" />
  <metadata
     id="metadata5">
    <rdf:RDF>
      <cc:Work
         rdf:about="">
        <dc:format>image/svg+xml</dc:format>
        <dc:type
           rdf:resource="http://purl.org/dc/dcmitype/StillImage" />
        <dc:title>Servipag Logo</dc:title>
      </cc:Work>
    </rdf:RDF>
  </metadata>
  <g
     inkscape:label="Capa 1"
     inkscape:groupmode="layer"
     id="layer1"
     transform="translate(-65.575182,-103.10214)">
    <g
       id="g4808"
       transform="matrix(2.3810082,0,0,2.3810082,-94.213778,-224.39572)">
      <g
         transform="matrix(0.35277777,0,0,-0.35277777,116.20098,162.13421)"
         id="g4507">
        <path
           inkscape:connector-curvature="0"
           id="path4509"
           style="fill:#ffde00;fill-opacity:1;fill-rule:nonzero;stroke:none"
           d="m 0,0 c -18.068,0 -32.768,14.705 -32.768,32.78 0,18.069 14.7,32.769 32.768,32.769 18.077,0 32.783,-14.7 32.783,-32.769 C 32.783,14.705 18.077,0 0,0" />
      </g>
      <g
         transform="matrix(0.35277777,0,0,-0.35277777,116.20112,138.6571)"
         id="g4511">
        <path
           inkscape:connector-curvature="0"
           id="path4513"
           style="fill:#ffffff;fill-opacity:1;fill-rule:nonzero;stroke:none"
           d="m 0,0 c -18.62,0 -33.768,-15.149 -33.768,-33.769 0,-18.627 15.148,-33.78 33.768,-33.78 18.628,0 33.782,15.153 33.782,33.78 C 33.782,-15.149 18.628,0 0,0 m 0,-2 c 17.526,0 31.782,-14.251 31.782,-31.769 0,-17.525 -14.256,-31.78 -31.782,-31.78 -17.515,0 -31.768,14.255 -31.768,31.78 C -31.768,-16.251 -17.515,-2 0,-2" />
      </g>
      <g
         transform="matrix(0.35277777,0,0,-0.35277777,69.822064,156.79207)"
         id="g4515">
        <path
           inkscape:connector-curvature="0"
           id="path4517"
           style="fill:#7d868c;fill-opacity:1;fill-rule:nonzero;stroke:none"
           d="m 0,0 -0.252,0.626 c -2.181,5.416 -3.286,11.138 -3.286,17.008 0,5.873 1.105,11.593 3.286,17.001 L 0,35.261 h 104.022 l -0.857,-1.497 c -2.807,-4.903 -4.291,-10.479 -4.291,-16.127 0,-5.652 1.484,-11.233 4.291,-16.14 L 104.021,0 Z" />
      </g>
      <g
         transform="matrix(0.35277777,0,0,-0.35277777,107.12711,144.00017)"
         id="g4519">
        <path
           inkscape:connector-curvature="0"
           id="path4521"
           style="fill:#ffffff;fill-opacity:1;fill-rule:nonzero;stroke:none"
           d="m 0,0 h -3.45 -101.621 -1.35 l -0.505,-1.252 c -2.229,-5.528 -3.359,-11.373 -3.359,-17.374 0,-5.999 1.13,-11.846 3.358,-17.381 l 0.505,-1.254 h 1.351 101.621 3.448 l -1.712,2.994 c -2.721,4.755 -4.159,10.165 -4.159,15.643 0,5.475 1.438,10.879 4.159,15.63 z m -3.45,-2 c -2.809,-4.906 -4.423,-10.578 -4.423,-16.624 0,-6.052 1.614,-11.726 4.423,-16.637 h -101.621 c -2.072,5.146 -3.214,10.761 -3.214,16.635 0,5.873 1.142,11.488 3.214,16.626 L -3.45,-2" />
      </g>
      <g
         transform="matrix(0.35277777,0,0,-0.35277777,125.88773,156.79207)"
         id="g4523">
        <path
           inkscape:connector-curvature="0"
           id="path4525"
           style="fill:#7d868c;fill-opacity:1;fill-rule:nonzero;stroke:none"
           d="m 0,0 0.856,1.497 c 2.809,4.909 4.293,10.49 4.293,16.14 0,5.643 -1.483,11.22 -4.29,16.127 l -0.855,1.497 h 14.688 l 0.253,-0.626 c 2.18,-5.409 3.287,-11.129 3.287,-17.001 0,-5.869 -1.107,-11.592 -3.287,-17.008 L 14.693,0 Z" />
      </g>
      <g
         transform="matrix(0.35277777,0,0,-0.35277777,131.30887,144.00017)"
         id="g4527">
        <path
           inkscape:connector-curvature="0"
           id="path4529"
           style="fill:#ffffff;fill-opacity:1;fill-rule:nonzero;stroke:none"
           d="m 0,0 h -1.35 -12.29 -3.448 l 1.712,-2.993 c 2.72,-4.756 4.158,-10.161 4.158,-15.631 0,-5.476 -1.439,-10.885 -4.161,-15.643 l -1.712,-2.993 h 3.448 12.293 1.351 l 0.504,1.252 c 2.229,5.535 3.359,11.383 3.359,17.382 0,6.001 -1.13,11.847 -3.359,17.374 z m -1.35,-2 c 2.073,-5.138 3.214,-10.753 3.214,-16.626 0,-5.874 -1.141,-11.489 -3.214,-16.634 h -12.293 c 2.809,4.91 4.425,10.584 4.425,16.636 0,6.046 -1.616,11.718 -4.422,16.624 h 12.29" />
      </g>
      <g
         transform="matrix(0.35277777,0,0,-0.35277777,107.86615,148.38206)"
         id="g4531">
        <path
           inkscape:connector-curvature="0"
           id="path4533"
           style="fill:#7d868c;fill-opacity:1;fill-rule:nonzero;stroke:none"
           d="m 0,0 h 1.575 c 2.11,0 3.785,-0.662 3.785,-2.708 0,-2.11 -1.675,-2.769 -3.785,-2.769 H 0 Z M -6.117,-16.205 H 0 v 6.954 h 2.368 c 5.718,0 9.107,2.401 9.107,6.454 0,4.507 -3.289,6.569 -10.292,6.569 h -7.3 z" />
      </g>
      <g
         transform="matrix(0.35277777,0,0,-0.35277777,115.9933,151.27265)"
         id="g4535">
        <path
           inkscape:connector-curvature="0"
           id="path4537"
           style="fill:#7d868c;fill-opacity:1;fill-rule:nonzero;stroke:none"
           d="m 0,0 h -5.738 l 2.931,7.847 h 0.072 z m -15.166,-8.012 h 6.205 l 1.804,4.243 H 1.435 L 3.156,-8.012 H 9.845 L 1.014,11.965 h -7.482 z" />
      </g>
      <g
         transform="matrix(0.35277777,0,0,-0.35277777,126.69905,153.89985)"
         id="g4539">
        <path
           inkscape:connector-curvature="0"
           id="path4541"
           style="fill:#7d868c;fill-opacity:1;fill-rule:nonzero;stroke:none"
           d="m 0,0 c -3.869,-0.862 -6.765,-0.911 -8.862,-0.911 -6.104,0 -13.15,2.678 -13.15,10.252 0,7.537 6.064,10.424 14.456,10.424 1.514,0 4.7,-0.145 6.922,-0.891 l -0.483,-4.348 c -1.904,0.975 -4.132,1.292 -5.578,1.292 -4.953,0 -9.019,-1.816 -9.019,-6.489 0,-3.914 3.184,-6.297 7.639,-6.297 0.823,0 1.619,0.11 2.162,0.345 V 7.33 h -3.569 v 3.767 H 0 Z" />
      </g>
      <g
         transform="matrix(0.35277777,0,0,-0.35277777,73.127556,152.36181)"
         id="g4543">
        <path
           inkscape:connector-curvature="0"
           id="path4545"
           style="fill:#ffffff;fill-opacity:1;fill-rule:nonzero;stroke:none"
           d="m 0,0 c 1.566,-0.746 3.763,-1.32 6.285,-1.32 1.94,0 3.76,0.344 3.76,1.944 0,3.731 -10.807,1.378 -10.807,8.669 0,4.798 5.377,6.127 9.968,6.127 2.185,0 4.349,-0.294 5.889,-0.748 l -0.393,-4.123 c -1.571,0.632 -3.345,0.919 -5.078,0.919 -1.539,0 -4.087,-0.12 -4.087,-1.864 0,-3.239 10.808,-1.059 10.808,-8.289 0,-5.176 -4.988,-6.579 -10.06,-6.579 -2.134,0 -4.781,0.287 -6.81,0.86 z" />
      </g>
      <g
         transform="matrix(0.35277777,0,0,-0.35277777,79.506096,147.04866)"
         id="g4547">
        <path
           inkscape:connector-curvature="0"
           id="path4549"
           style="fill:#ffffff;fill-opacity:1;fill-rule:nonzero;stroke:none"
           d="M 0,0 H 16.158 V -3.776 H 6.118 V -7.893 H 15.6 v -3.776 H 6.118 v -4.532 h 10.4 v -3.77 H 0 Z" />
      </g>
      <g
         transform="matrix(0.35277777,0,0,-0.35277777,88.265427,148.38079)"
         id="g4551">
        <path
           inkscape:connector-curvature="0"
           id="path4553"
           style="fill:#ffffff;fill-opacity:1;fill-rule:nonzero;stroke:none"
           d="m 0,0 h 1.605 c 2.334,0 4.471,-0.338 4.471,-2.21 0,-2.264 -2.505,-2.32 -4.471,-2.32 L 0,-4.53 Z M -6.12,-16.195 H 0 v 7.889 h 1.276 c 2.269,0 3.049,-0.854 4.293,-4.284 l 1.32,-3.605 h 6.37 l -2.238,5.437 c -1.125,2.43 -1.252,3.946 -3.235,4.404 v 0.056 c 2.962,0.6 4.408,2.368 4.408,5.043 0,3.43 -3.32,5.031 -7.394,5.031 H -6.12 Z" />
      </g>
      <g
         transform="matrix(0.35277777,0,0,-0.35277777,92.597997,147.04866)"
         id="g4555">
        <path
           inkscape:connector-curvature="0"
           id="path4557"
           style="fill:#ffffff;fill-opacity:1;fill-rule:nonzero;stroke:none"
           d="m 0,0 h 6.502 l 5.087,-15.677 h 0.073 L 16.8,0 h 6.272 L 15.255,-19.971 H 7.699 Z" />
      </g>
      <path
         inkscape:connector-curvature="0"
         id="path4559"
         style="fill:#ffffff;fill-opacity:1;fill-rule:nonzero;stroke:none;stroke-width:0.35277778"
         d="m 101.22729,147.04848 h 2.15548 v 7.04533 h -2.15548 z" />
    </g>
  </g>
</svg>
